<?xml version="1.0" encoding="utf-8"?>
<!-- Generator: Adobe Illustrator 23.0.0, SVG Export Plug-In . SVG Version: 6.00 Build 0)  -->
<svg version="1.1" id="Capa_1" xmlns="http://www.w3.org/2000/svg" xmlns:xlink="http://www.w3.org/1999/xlink" x="0px" y="0px"
	 viewBox="0 0 20 20" style="enable-background:new 0 0 20 20;" xml:space="preserve">
<style type="text/css">
	.st0{fill:#8C8984;}
</style>
<path class="st0" d="M0,10c0,5.5,4.5,10,10,10s10-4.5,10-10S15.5,0,10,0S0,4.5,0,10z M6.9,9.5l4.4-4.4c0.3-0.3,0.8-0.3,1.1,0
	l0.7,0.7c0.3,0.3,0.3,0.8,0,1.1L10,10l3.1,3.1c0.3,0.3,0.3,0.8,0,1.1L12.3,15c-0.3,0.3-0.8,0.3-1.1,0l-4.4-4.4
	C6.6,10.2,6.6,9.8,6.9,9.5z"/>
</svg>
