<?xml version="1.0" encoding="utf-8"?>
<!-- Generator: Adobe Illustrator 23.0.0, SVG Export Plug-In . SVG Version: 6.00 Build 0)  -->
<svg version="1.1" id="Capa_1" xmlns="http://www.w3.org/2000/svg" xmlns:xlink="http://www.w3.org/1999/xlink" x="0px" y="0px"
	 viewBox="0 0 15 40" style="enable-background:new 0 0 15 40;" xml:space="preserve">
<style type="text/css">
	.st0{fill-rule:evenodd;clip-rule:evenodd;fill:#FFFFFF;}
</style>
<g>
	<path class="st0" d="M14.2,40c0-2.7-2.9-4.7-5.6-4.7l-1.2,1.9l-1.2-1.9c-2.7,0-5.5,1.9-5.5,4.7H14.2z"/>
	<path class="st0" d="M7.9,34.1l0.8-2.6c4.3-5.1,0.1-10-0.8-15.9c0-0.3-0.7-0.4-0.7,0c-0.8,5.9-5.4,10.7-0.8,15.9l0.8,2.6H6.3
		c-3.4-5.3-6.6-7.2-5.7-13.8C1.7,12.9,6.3,8,7.1,0.3c0-0.4,0.7-0.4,0.7,0c0.8,7.7,5.5,12.6,6.5,20.1c0.9,6.6-2.4,8.7-5.7,13.8H7.9z"
		/>
</g>
</svg>
