<?xml version="1.0" encoding="utf-8"?>
<!-- Generator: Adobe Illustrator 23.0.0, SVG Export Plug-In . SVG Version: 6.00 Build 0)  -->
<svg version="1.1" id="Capa_1" xmlns="http://www.w3.org/2000/svg" xmlns:xlink="http://www.w3.org/1999/xlink" x="0px" y="0px"
	 viewBox="0 0 115 40" style="enable-background:new 0 0 115 40;" xml:space="preserve">
<style type="text/css">
	.st0{fill-rule:evenodd;clip-rule:evenodd;fill:#FFFFFF;}
</style>
<g>
	<g>
		<path class="st0" d="M14.8,40c0-2.7-2.9-4.7-5.6-4.7L8,37.3l-1.2-1.9c-2.7,0-5.5,1.9-5.5,4.7H14.8z"/>
		<path class="st0" d="M8.5,34.1l0.8-2.6c4.3-5.1,0.1-10-0.8-15.9c0-0.3-0.7-0.4-0.7,0c-0.8,5.9-5.4,10.7-0.8,15.9l0.8,2.6H6.9
			c-3.4-5.3-6.6-7.2-5.7-13.8C2.2,12.9,6.9,8,7.7,0.3c0-0.4,0.7-0.4,0.7,0C9.3,8,13.9,12.9,15,20.4c0.9,6.6-2.4,8.7-5.7,13.8H8.5z"
			/>
	</g>
	<g>
		<path class="st0" d="M25.6,17v2.2H30v1.6h-4.4v2.4h4.7v1.8h-6.9v-9.8h6.9V17H25.6z M36.1,17.1v7.8h-2.3v-7.8h-2.7v-2h7.7v2H36.1z
			 M45.6,21.3h2.2c0,0.1,0,0.2,0,0.3c0,0.5,0,0.9-0.1,1.2c0,0.3-0.1,0.6-0.3,0.9c-0.2,0.3-0.4,0.5-0.7,0.7c-0.3,0.2-0.7,0.3-1.1,0.4
			c-0.4,0.1-0.8,0.1-1.3,0.1c-0.5,0-1.2,0-2.1,0c-0.6-0.1-1.1-0.2-1.5-0.4c-0.4-0.2-0.7-0.5-0.8-0.9c-0.2-0.4-0.3-0.8-0.4-1.2
			c-0.1-0.4-0.1-1-0.1-1.6l0-1.3c0-0.9,0.1-1.7,0.2-2.2c0.1-0.6,0.4-1,0.7-1.3c0.3-0.3,0.8-0.6,1.3-0.7c0.6-0.1,1.3-0.2,2.2-0.2h0.7
			c0.7,0,1.3,0.1,1.7,0.2c0.5,0.1,0.9,0.4,1.1,0.9c0.1,0.2,0.2,0.4,0.3,0.7c0.1,0.3,0.1,0.5,0.1,0.8c0,0.3,0,0.6,0,0.9h-2.3
			c0-0.4,0-0.7-0.1-0.9c-0.1-0.2-0.2-0.4-0.4-0.5C44.8,17,44.4,17,44,17h-0.4c-0.8,0-1.4,0.1-1.6,0.4c-0.2,0.2-0.3,0.6-0.4,1.2
			c0,0.3,0,0.7,0,1.4l0,1.2c0,0.6,0,1,0.1,1.3c0.1,0.3,0.3,0.5,0.5,0.6c0.3,0.1,0.7,0.2,1.2,0.2c0.7,0,1.1-0.1,1.5-0.2
			c0.3-0.1,0.5-0.5,0.5-1.1c0-0.1,0-0.1,0-0.2S45.6,21.3,45.6,21.3z M57.5,15.1v9.8h-2.3v-4h-4v4H49v-9.8h2.2V19h4v-3.9H57.5z
			 M61.3,17v2.2h4.4v1.6h-4.4v2.4H66v1.8h-6.9v-9.8H66V17H61.3z M71.7,19.5h4.4c0,0.1,0,0.2,0,0.3l0,1.6c0,0.7-0.1,1.3-0.2,1.8
			c-0.1,0.5-0.3,0.9-0.7,1.2c-0.4,0.3-0.9,0.5-1.5,0.6c-0.5,0-1.2,0.1-1.9,0.1c-0.8,0-1.5,0-2-0.1c-0.5-0.1-1-0.3-1.4-0.5
			c-0.4-0.3-0.7-0.7-0.8-1.2c-0.2-0.5-0.3-1.2-0.3-2c0-0.2,0-0.4,0-0.7c0-0.3,0-0.6,0-0.7c0-0.7,0-1.2,0-1.5c0-0.3,0.1-0.7,0.2-1
			c0.1-0.4,0.3-0.7,0.5-1c0.4-0.5,0.9-0.8,1.4-0.9c0.6-0.1,1.3-0.2,2.2-0.2h0.2c0.8,0,1.4,0,1.9,0.1c0.5,0,0.9,0.2,1.2,0.3
			c0.3,0.2,0.6,0.5,0.8,0.9c0.2,0.4,0.3,1,0.3,1.8h-2.3c0-0.4-0.1-0.6-0.2-0.8c-0.1-0.2-0.3-0.3-0.5-0.3c-0.2-0.1-0.5-0.1-0.9-0.1
			h-0.5c-0.8,0-1.3,0.1-1.6,0.3c-0.2,0.2-0.3,0.4-0.4,0.7c0,0.3-0.1,0.6-0.1,1.1c0,0.9,0,1.6,0,2c0,0.6,0.1,1.1,0.2,1.3
			c0.1,0.3,0.3,0.5,0.6,0.6c0.3,0.1,0.7,0.1,1.3,0.1c0.6,0,1,0,1.3-0.1c0.3-0.1,0.5-0.2,0.6-0.5c0.1-0.2,0.2-0.6,0.2-1.2
			c0,0,0-0.1,0-0.1c0-0.1,0-0.1,0-0.1h-2.1V19.5z M77,20.1c0-1,0-1.8,0.1-2.4c0.1-0.6,0.3-1.1,0.6-1.5c0.3-0.4,0.7-0.7,1.3-0.9
			c0.6-0.2,1.4-0.3,2.4-0.3c0.6,0,1.2,0,1.7,0.1c0.5,0.1,0.9,0.2,1.3,0.4s0.7,0.5,1,0.9c0.2,0.4,0.4,0.9,0.4,1.6c0,0.3,0,0.7,0,1.3
			v0.6c0,1,0,1.8-0.1,2.4c-0.1,0.6-0.3,1.1-0.6,1.5c-0.3,0.4-0.7,0.7-1.3,0.9c-0.6,0.2-1.4,0.3-2.4,0.3c-0.8,0-1.5-0.1-2-0.2
			c-0.5-0.1-1-0.3-1.3-0.6c-0.3-0.3-0.6-0.7-0.8-1.2c-0.2-0.5-0.2-1.2-0.2-2V20.1z M79.4,20v0.7c0,0.6,0,1,0.1,1.3
			c0.1,0.3,0.2,0.5,0.5,0.7c0.3,0.2,0.7,0.2,1.2,0.2c0.5,0,1,0,1.3-0.1c0.3-0.1,0.5-0.2,0.7-0.4c0.2-0.2,0.3-0.4,0.3-0.7
			c0-0.3,0.1-0.7,0.1-1.2c0-0.2,0-0.4,0-0.7c0-0.3,0-0.5,0-0.8c0-0.5,0-1-0.1-1.3c-0.1-0.3-0.2-0.5-0.5-0.7C82.7,17,82.3,17,81.8,17
			h-0.4c-0.6,0-1,0.1-1.3,0.2c-0.3,0.1-0.5,0.3-0.6,0.5c-0.1,0.2-0.2,0.6-0.2,0.9C79.4,19,79.4,19.5,79.4,20z M95.4,15.1l-3.6,6.2
			v3.6h-2.3v-3.6L86,15.1h2.6l2,4h0.1l2.1-4H95.4z M98.2,17v2.2h4.4v1.6h-4.4v2.4h4.7v1.8h-6.9v-9.8h6.9V17H98.2z M114,15.1v9.8
			h-3.8l-3.5-7.9h-0.1l0.1,7.9h-2.2v-9.8h3.8l3.5,7.8h0.1l-0.1-7.8H114z"/>
	</g>
</g>
</svg>
