<?xml version="1.0" encoding="utf-8"?>
<!-- Generator: Adobe Illustrator 23.0.0, SVG Export Plug-In . SVG Version: 6.00 Build 0)  -->
<svg version="1.1" id="Capa_1" xmlns="http://www.w3.org/2000/svg" xmlns:xlink="http://www.w3.org/1999/xlink" x="0px" y="0px"
	 viewBox="0 0 100 100" style="enable-background:new 0 0 100 100;" xml:space="preserve">
<style type="text/css">
	.st0{fill:#FFFFFF;}
</style>
<g>
	<path class="st0" d="M50,0C22.4,0,0,22.4,0,50s22.4,50,50,50s50-22.4,50-50S77.6,0,50,0z M56,93.5l0.2-0.6c0.2-0.5,0.3-1,0.6-1.6
		l0.3-1c0.3-0.8,0.6-1.6,0.9-2.4l0.3-0.9c0.2-0.4,0.3-0.8,0.5-1.3c0.3-0.9,0.7-1.8,1.1-2.7l0.3-0.8c0.2-0.4,0.4-0.9,0.6-1.3l1-2.2
		c0.2-0.5,0.4-0.9,0.7-1.4c0.1-0.3,0.3-0.5,0.4-0.8c0.4-0.7,0.7-1.5,1.1-2.2l0.4-0.8c0.3-0.5,0.5-0.9,0.8-1.4l1.3-2.2
		c0.3-0.5,0.5-0.9,0.8-1.3c0.2-0.2,0.3-0.5,0.5-0.7l0.3-0.5c0.3-0.5,0.7-1,1-1.6l1.4-2c0.3-0.4,0.6-0.8,0.9-1.2l0.5-0.7
		c0.6-0.9,1.3-1.7,2-2.5c0.2-0.3,0.5-0.6,0.7-0.9c0.3-0.4,0.6-0.7,1-1.1l1.6-1.7c0.5-0.5,1-1,1.5-1.5c0.3-0.3,0.5-0.5,0.8-0.8
		c0.5-0.5,0.9-0.9,1.3-1.2l2.1-1.8c1-0.9,1.3-2.5,0.6-3.8c-0.4-0.8-1-1.3-1.8-1.4c-0.7-0.1-1.5,0.1-2,0.6c0,0-0.1,0.1-0.1,0.1l-2,2
		c-0.4,0.4-0.9,0.9-1.4,1.5c-0.2,0.3-0.5,0.5-0.7,0.8c-0.5,0.5-1,1.1-1.6,1.7l-1.5,1.9c-0.4,0.4-0.7,0.9-1.1,1.3L70.6,56
		c-0.7,0.9-1.4,1.8-2.1,2.8l-0.5,0.7c-0.3,0.4-0.6,0.9-0.9,1.3L65.8,63c-0.4,0.6-0.7,1.2-1.1,1.8l-0.3,0.5c-0.1,0.2-0.3,0.5-0.4,0.7
		c-0.3,0.5-0.6,1-0.9,1.6l-1.2,2.3c-0.3,0.5-0.5,1-0.8,1.5l-0.4,0.8c-0.4,0.8-0.8,1.6-1.1,2.4c-0.1,0.3-0.2,0.5-0.4,0.8
		c-0.2,0.5-0.5,1-0.7,1.5l-0.9,2.3c-0.2,0.5-0.4,1-0.6,1.5l-0.3,0.7c-0.4,1-0.7,2-1.1,2.9c-0.1,0.4-0.3,0.8-0.5,1.3l-0.3,1
		c-0.3,0.9-0.6,1.7-0.8,2.5l-0.3,1.1c-0.2,0.6-0.4,1.2-0.5,1.7l-0.5,1.9c-0.9,0.1-1.8,0.1-2.8,0.1s-1.8,0-2.8-0.1l-0.5-1.9
		c-0.1-0.5-0.3-1.1-0.5-1.7l-0.3-1.1c-0.2-0.8-0.5-1.6-0.8-2.5l-0.4-1.1c-0.1-0.4-0.3-0.8-0.4-1.3c-0.3-0.9-0.7-1.9-1.1-2.9
		l-0.3-0.8c-0.2-0.5-0.4-1-0.6-1.5L41.4,77c-0.2-0.5-0.4-1-0.7-1.5c-0.1-0.3-0.2-0.5-0.4-0.8c-0.3-0.7-0.7-1.6-1.1-2.4l-0.4-0.8
		c-0.3-0.5-0.5-1-0.8-1.6l-1.2-2.3C36.6,67,36.3,66.5,36,66c-0.1-0.2-0.3-0.5-0.4-0.8l-0.3-0.5c-0.3-0.6-0.7-1.2-1.1-1.7l-1.4-2.1
		c-0.3-0.5-0.6-0.9-0.9-1.3l-0.5-0.7c-0.7-1-1.4-2-2.1-2.8l-0.7-0.9c-0.3-0.5-0.7-0.9-1.1-1.3l-1.6-1.9c-0.5-0.6-1.1-1.2-1.6-1.7
		c-0.3-0.3-0.5-0.5-0.7-0.8c-0.5-0.6-1-1.1-1.4-1.5l-2-2c0,0-0.1-0.1-0.1-0.1c-0.6-0.5-1.3-0.7-2-0.6c-0.8,0.1-1.4,0.7-1.8,1.4
		c-0.7,1.3-0.4,2.9,0.7,3.8l2,1.8c0.4,0.3,0.8,0.7,1.3,1.2c0.2,0.2,0.5,0.5,0.8,0.8c0.5,0.5,1,0.9,1.5,1.5l1.6,1.7
		c0.3,0.3,0.6,0.7,1,1.1c0.2,0.3,0.5,0.6,0.7,0.9c0.7,0.8,1.3,1.6,2,2.5l0.5,0.7c0.3,0.4,0.6,0.8,0.9,1.2l1.4,2c0.4,0.5,0.7,1,1,1.5
		l0.3,0.5c0.2,0.3,0.3,0.5,0.5,0.8c0.3,0.4,0.6,0.9,0.8,1.4l1.3,2.2c0.3,0.5,0.5,1,0.8,1.4l0.4,0.8c0.4,0.7,0.8,1.4,1.1,2.2
		c0.1,0.3,0.3,0.5,0.4,0.8c0.2,0.5,0.5,0.9,0.7,1.4l1,2.2c0.2,0.4,0.4,0.9,0.6,1.3l0.3,0.8c0.4,0.9,0.8,1.8,1.1,2.7
		c0.2,0.4,0.3,0.8,0.5,1.2l0.4,1c0.3,0.9,0.6,1.7,0.9,2.4l0.4,1c0.2,0.6,0.4,1.2,0.6,1.6l0.2,0.6C22.6,90.5,6.1,72.2,6.1,50
		C6.1,25.8,25.8,6.1,50,6.1S93.9,25.8,93.9,50C93.9,72.2,77.4,90.5,56,93.5z"/>
	<path class="st0" d="M50,12.8c-2.1,0-3.6,1.8-3.6,4.2l3.6,68l3.6-68C53.6,14.6,52.1,12.8,50,12.8z"/>
</g>
</svg>
