<?xml version="1.0" encoding="utf-8"?>
<!-- Generator: Adobe Illustrator 23.0.0, SVG Export Plug-In . SVG Version: 6.00 Build 0)  -->
<svg version="1.1" id="Capa_1" xmlns="http://www.w3.org/2000/svg" xmlns:xlink="http://www.w3.org/1999/xlink" x="0px" y="0px"
	 viewBox="0 0 100 100" style="enable-background:new 0 0 100 100;" xml:space="preserve">
<style type="text/css">
	.st0{fill:#FFFFFF;}
</style>
<g>
	<g>
		<path class="st0" d="M50,0C22.43,0,0,22.43,0,50c0,27.57,22.43,50,50,50s50-22.43,50-50C100,22.43,77.57,0,50,0z M50,93.86
			c-22.06,0-40.36-16.37-43.41-37.6h32.03v12.15H50V31.59H38.62v12.15H6.59C9.64,22.51,27.94,6.14,50,6.14
			c24.19,0,43.86,19.68,43.86,43.86C93.86,74.19,74.19,93.86,50,93.86z"/>
		<path class="st0" d="M86.27,48.16H57.52c-1.02,0-1.84,0.82-1.84,1.84s0.82,1.84,1.84,1.84h28.75c1.02,0,1.84-0.82,1.84-1.84
			S87.29,48.16,86.27,48.16z"/>
		<path class="st0" d="M56.49,42.82c0.32,0.22,0.68,0.32,1.03,0.32c0.59,0,1.17-0.28,1.52-0.81l9.61-14.14
			c0.57-0.84,0.35-1.99-0.49-2.56c-0.84-0.57-1.99-0.35-2.56,0.49L56,40.27C55.43,41.11,55.65,42.25,56.49,42.82z"/>
		<path class="st0" d="M59.05,57.66c-0.57-0.84-1.72-1.06-2.56-0.49c-0.84,0.57-1.06,1.72-0.49,2.56l9.61,14.14
			c0.36,0.52,0.94,0.81,1.52,0.81c0.36,0,0.72-0.1,1.03-0.32c0.84-0.57,1.06-1.72,0.49-2.56L59.05,57.66z"/>
	</g>
</g>
</svg>
