<?xml version="1.0" encoding="utf-8"?>
<!-- Generator: Adobe Illustrator 23.0.0, SVG Export Plug-In . SVG Version: 6.00 Build 0)  -->
<svg version="1.1" id="Capa_1" xmlns="http://www.w3.org/2000/svg" xmlns:xlink="http://www.w3.org/1999/xlink" x="0px" y="0px"
	 viewBox="0 0 50 50" style="enable-background:new 0 0 50 50;" xml:space="preserve">
<style type="text/css">
	.st0{fill:#FFFFFF;}
	.st1{fill-rule:evenodd;clip-rule:evenodd;fill:#FFFFFF;}
</style>
<g>
	<path class="st0" d="M25,3.4c11.9,0,21.6,9.7,21.6,21.6c0,11.9-9.7,21.6-21.6,21.6C13.1,46.6,3.4,36.9,3.4,25
		C3.4,13.1,13.1,3.4,25,3.4 M25,0C11.2,0,0,11.2,0,25c0,13.8,11.2,25,25,25c13.8,0,25-11.2,25-25C50,11.2,38.8,0,25,0L25,0z"/>
	<path class="st1" d="M11.8,38.3c0.2-0.6,0.3-1.1,0.4-1.6c0.5-1.7,0.9-3.3,1.4-5c0.1-0.2,0-0.6-0.1-0.8c-4.2-8,0.1-17.8,9-19.9
		c8-1.9,15.3,3.5,16.6,10.8c1.4,7.6-3.6,14.8-11.1,16.1c-3,0.5-5.8,0.1-8.6-1.2c-0.2-0.1-0.6-0.2-0.8-0.1
		C15,37.4,12.5,38.1,11.8,38.3z M15,35.1c1.4-0.4,2.6-0.7,3.9-1c0.4-0.1,0.6,0,0.9,0.1c2.4,1.4,4.9,1.9,7.6,1.4
		c6.2-1,10.5-6.8,9.5-13c-1-6.4-7-10.8-13.4-9.6c-7.7,1.4-11.8,10-8,16.8c0.4,0.8,0.5,1.4,0.3,2.2C15.5,33,15.3,34,15,35.1z"/>
	<path class="st1" d="M29.2,30.9c-2.7-0.1-6.9-2.2-9.9-7.3c-1-1.8-0.9-3.9,0.6-5.3c0.5-0.5,1.2-0.4,1.8-0.3c0.1,0,0.3,0.2,0.4,0.4
		c0.4,0.9,0.8,1.8,1.1,2.7c0.2,0.5-0.2,0.9-0.8,1.7c-0.2,0.3-0.3,0.5-0.1,0.8c1.1,1.9,2.7,3.3,4.8,4.1c0.3,0.1,0.5,0,0.7-0.2
		c1.1-1.3,1.2-1.7,1.8-1.5c2.8,1.3,3,1.4,3,1.7C32.6,30.2,30.5,31,29.2,30.9z"/>
</g>
</svg>
