<?xml version="1.0" encoding="utf-8"?>
<!-- Generator: Adobe Illustrator 23.0.0, SVG Export Plug-In . SVG Version: 6.00 Build 0)  -->
<svg version="1.1" id="Capa_1" xmlns="http://www.w3.org/2000/svg" xmlns:xlink="http://www.w3.org/1999/xlink" x="0px" y="0px"
	 viewBox="0 0 100 100" style="enable-background:new 0 0 100 100;" xml:space="preserve">
<style type="text/css">
	.st0{fill:#2E4B93;}
</style>
<g>
	<path class="st0" d="M50,0C22.4,0,0,22.4,0,50s22.4,50,50,50c27.6,0,50-22.4,50-50S77.6,0,50,0z M24.7,75v-5.2h10.2V75H24.7z
		 M38.2,75v-5.2h10.2V75H38.2z M51.7,75v-5.2h10.2V75H51.7z M65.1,75v-5.2h10.2V75H65.1z M78.2,83.6V55.7h-2.6l-1.7-30.3h-5.5
		l-2.3,30h-3L53.6,50l-0.1,5.3L43,49.1v6.4L32.3,49l0.1,6.4l-10.7-6v34.3C12.2,75.6,6.1,63.5,6.1,50C6.1,25.8,25.8,6.1,50,6.1
		c24.2,0,43.9,19.7,43.9,43.9C93.9,63.5,87.8,75.6,78.2,83.6z"/>
	<polygon class="st0" points="68.9,20.5 68.6,24 73.9,24 73.7,20.5 	"/>
</g>
</svg>
