<?xml version="1.0" encoding="utf-8"?>
<!-- Generator: Adobe Illustrator 23.0.0, SVG Export Plug-In . SVG Version: 6.00 Build 0)  -->
<svg version="1.1" id="Capa_1" xmlns="http://www.w3.org/2000/svg" xmlns:xlink="http://www.w3.org/1999/xlink" x="0px" y="0px"
	 viewBox="0 0 250 300" style="enable-background:new 0 0 250 300;" xml:space="preserve">
<style type="text/css">
	.st0{fill-rule:evenodd;clip-rule:evenodd;fill:#FFFFFF;}
	.st1{fill:#FFFFFF;}
</style>
<g>
	<path class="st0" d="M163.9,226.2c0-15.3-17.1-26.1-32.6-26.1l-6.7,10.8l-6.7-10.8c-15.5,0-31.8,10.8-31.8,26.1H163.9"/>
	<path class="st0" d="M127.2,193.4l4.9-14.3c25.1-28.8,0.5-55.7-4.9-88.9c0-1.6-4.3-2-4.3,0c-4.9,33.1-31.3,60.1-4.9,88.9l4.9,14.3
		H118c-19.9-29.6-38.3-40.3-33-76.9c6.1-41.9,33-69,37.9-112.1c0-2.4,4.3-2.4,4.3,0c4.9,43.2,31.7,70.2,37.8,112.1
		c5.3,36.6-13.7,48.5-32.9,76.9H127.2"/>
	<path class="st0" d="M242.5,237v25.5h-9.9l-9-20.5h-0.2l0.2,20.5H218V237h9.8l9,20.3h0.2l-0.2-20.3H242.5 M201.5,241.8v5.6h11.4
		v4.1h-11.4v6.1h12.3v4.8h-18V237h17.8v4.8H201.5z M194.3,237l-9.3,16.1v9.4h-6v-9.4L170,237h6.6l5.3,10.3h0.2l5.4-10.3H194.3z
		 M152.7,249.8v1.9c0,1.6,0.1,2.7,0.3,3.5c0.2,0.8,0.6,1.4,1.3,1.8c0.7,0.4,1.7,0.6,3.2,0.6c1.4,0,2.5-0.1,3.3-0.3
		c0.8-0.2,1.4-0.5,1.8-1c0.4-0.5,0.7-1.1,0.8-1.9c0.1-0.8,0.2-1.8,0.2-3.2c0-0.4,0-1,0-1.7c0-0.7,0-1.4,0-2c0-1.4-0.1-2.5-0.3-3.3
		c-0.2-0.8-0.6-1.4-1.2-1.8c-0.6-0.4-1.6-0.6-2.9-0.6H158c-1.5,0-2.6,0.1-3.4,0.4c-0.7,0.3-1.2,0.7-1.5,1.3
		c-0.3,0.6-0.4,1.4-0.4,2.5C152.7,247.1,152.7,248.4,152.7,249.8z M146.7,250c0-2.6,0.1-4.7,0.3-6.3c0.2-1.6,0.7-2.9,1.4-3.9
		c0.7-1,1.9-1.8,3.4-2.3c1.5-0.5,3.5-0.7,6.1-0.7c1.7,0,3.1,0.1,4.4,0.3c1.2,0.2,2.4,0.5,3.4,1c1,0.5,1.8,1.3,2.5,2.3
		c0.6,1,1,2.4,1.1,4.1c0.1,0.7,0.1,1.9,0.1,3.4v1.7c0,2.7-0.1,4.8-0.3,6.3c-0.2,1.5-0.7,2.8-1.4,3.8c-0.7,1-1.9,1.8-3.4,2.3
		c-1.5,0.5-3.6,0.7-6.3,0.7c-2.1,0-3.8-0.2-5.2-0.5c-1.4-0.3-2.5-0.8-3.4-1.6c-0.9-0.8-1.5-1.8-2-3.2c-0.4-1.4-0.6-3.1-0.6-5.2V250z
		 M132.9,248.6h11.3c0,0.2,0,0.4,0,0.7l0,4c0,1.8-0.1,3.3-0.4,4.6c-0.3,1.2-0.9,2.2-1.8,3c-0.9,0.8-2.2,1.3-4,1.6
		c-1.4,0.1-3,0.2-5,0.2c-2.1,0-3.8-0.1-5.2-0.4c-1.4-0.3-2.6-0.7-3.5-1.4c-1-0.7-1.7-1.7-2.2-3c-0.5-1.3-0.7-3-0.7-5.1
		c0-0.4,0-1.1,0-1.9c0-0.8,0-1.4,0-1.9c0-1.8,0-3.1,0.1-3.9c0-0.8,0.2-1.7,0.5-2.7c0.3-1,0.7-1.9,1.3-2.7c1-1.2,2.2-2,3.7-2.4
		c1.5-0.3,3.4-0.5,5.6-0.5h0.5c2.1,0,3.7,0.1,4.9,0.2c1.2,0.1,2.2,0.4,3.1,0.9c0.9,0.5,1.6,1.3,2.1,2.4c0.5,1.1,0.8,2.6,0.8,4.6
		h-5.9c-0.1-0.9-0.3-1.6-0.6-2c-0.3-0.4-0.7-0.7-1.3-0.9c-0.5-0.1-1.3-0.2-2.3-0.2h-1.4c-2,0-3.4,0.3-4,0.9c-0.6,0.5-0.9,1.1-1,1.8
		c-0.1,0.7-0.2,1.6-0.2,2.8c0,2.4,0,4.1,0,5.3c0,1.6,0.2,2.7,0.5,3.5c0.3,0.7,0.8,1.2,1.5,1.5c0.7,0.2,1.9,0.4,3.5,0.4
		c1.5,0,2.6-0.1,3.3-0.2c0.7-0.2,1.3-0.5,1.6-1.2c0.4-0.6,0.5-1.6,0.5-3c0-0.1,0-0.2,0-0.3c0-0.1,0-0.2,0-0.3h-5.6V248.6z
		 M105.9,241.8v5.6h11.4v4.1h-11.4v6.1h12.3v4.8h-18V237h17.8v4.8H105.9z M96,237v25.5h-5.9v-10.4H79.8v10.4h-5.8V237h5.8v10h10.3
		v-10H96z M65.1,253.1h5.8c0,0.4,0,0.6,0,0.8c0,1.3,0,2.3-0.1,3.1c-0.1,0.8-0.3,1.6-0.7,2.4c-0.4,0.8-1,1.4-1.9,1.9
		c-0.9,0.5-1.8,0.9-2.8,1.1c-1,0.2-2.1,0.3-3.4,0.3c-1.2,0-3.1,0-5.5-0.1c-1.6-0.1-2.8-0.5-3.8-1.1c-1-0.6-1.7-1.4-2.2-2.3
		c-0.5-0.9-0.8-2-1-3.2c-0.2-1.2-0.3-2.5-0.3-4.1l-0.1-3.4c0-2.4,0.2-4.3,0.5-5.8c0.3-1.5,0.9-2.6,1.7-3.5c0.8-0.8,2-1.4,3.4-1.8
		c1.5-0.3,3.4-0.5,5.8-0.5h1.8c1.8,0,3.3,0.2,4.5,0.5c1.2,0.4,2.2,1.1,2.9,2.3c0.3,0.5,0.6,1.2,0.7,1.8c0.1,0.7,0.2,1.3,0.3,2
		c0,0.7,0.1,1.5,0.1,2.3h-5.9c0-1-0.1-1.8-0.3-2.4c-0.2-0.6-0.6-1-1.2-1.2c-0.6-0.2-1.4-0.4-2.4-0.4h-0.9c-2.1,0-3.5,0.3-4.1,1
		c-0.5,0.5-0.8,1.5-0.9,3c0,0.8,0,1.9,0,3.5l0,3c0,1.5,0.1,2.5,0.4,3.3c0.3,0.7,0.7,1.2,1.4,1.5c0.7,0.3,1.7,0.4,3.1,0.4
		c1.7,0,3-0.2,3.8-0.6c0.8-0.4,1.3-1.3,1.3-2.8c0-0.1,0-0.3,0-0.6C65.1,253.4,65.1,253.2,65.1,253.1z M40.5,242.1v20.3h-5.9v-20.3
		h-6.9V237h20v5.1H40.5z M13.2,241.8v5.6h11.4v4.1H13.2v6.1h12.3v4.8h-18V237h17.8v4.8H13.2z"/>
	<g>
		<path class="st1" d="M11.7,279.5c-0.1,0-0.2,0-0.3,0c-0.1,0-0.2,0-0.3,0c-0.4,0-0.8-0.1-1.1-0.2c-0.3-0.1-0.6-0.3-0.8-0.6
			c-0.3-0.3-0.5-0.7-0.6-1.2c-0.1-0.5-0.2-1.4-0.2-2.7c0-1.1,0-1.9,0.1-2.4c0.1-0.5,0.2-0.9,0.4-1.1c0.3-0.4,0.6-0.7,1-0.9
			c0.4-0.2,0.9-0.3,1.5-0.3s1.1,0.1,1.5,0.3s0.7,0.5,1,0.9c0.2,0.3,0.3,0.7,0.4,1.2c0.1,0.5,0.1,1.3,0.1,2.3c0,1.3-0.1,2.3-0.2,2.8
			c-0.1,0.5-0.4,0.9-0.8,1.2l0.7,0.8l-1.2,1.1L11.7,279.5z M12.2,275.7v-1.6c0-1-0.1-1.6-0.2-1.8c-0.1-0.2-0.3-0.4-0.7-0.4
			c-0.3,0-0.5,0.1-0.7,0.4c-0.1,0.2-0.2,0.8-0.2,1.8v1.6c0,1,0.1,1.6,0.2,1.8c0.1,0.2,0.3,0.4,0.7,0.4c0.3,0,0.5-0.1,0.7-0.4
			C12.1,277.2,12.2,276.6,12.2,275.7z"/>
		<path class="st1" d="M20.4,270.4h2.1v5.6c0,0.8,0.1,1.4,0.2,1.6c0.1,0.2,0.3,0.3,0.6,0.3c0.3,0,0.5-0.1,0.6-0.3
			c0.1-0.2,0.2-0.7,0.2-1.6v-5.6H26v5.7c0,0.6,0,1.1-0.1,1.4c-0.1,0.3-0.1,0.6-0.3,0.8c-0.2,0.4-0.5,0.7-0.9,0.9
			c-0.4,0.2-0.9,0.3-1.6,0.3c-0.6,0-1.1-0.1-1.5-0.3c-0.4-0.2-0.7-0.5-0.9-0.8c-0.2-0.3-0.3-0.6-0.3-1.1c-0.1-0.4-0.1-1.2-0.1-2.2
			V270.4z"/>
		<path class="st1" d="M32.3,279.3v-8.9h4.8v1.7h-2.8v1.6h2.6v1.8h-2.6v1.9h2.8v1.8H32.3z"/>
		<path class="st1" d="M43.3,279.3v-8.9h2.9l0.8,3.8c0,0,0,0.3,0.1,0.7c0.1,0.5,0.1,0.9,0.2,1.4c0-0.3,0.1-0.8,0.2-1.3
			c0.1-0.5,0.1-0.8,0.1-0.8l0.8-3.8h2.9v8.9h-2l0.2-6.9l-1.4,6.9h-1.6l-1.4-6.9l0.2,6.9H43.3z"/>
		<path class="st1" d="M56.9,279.3l1.9-8.9h2.5l1.9,8.9h-2.1l-0.3-1.7h-1.6l-0.3,1.7H56.9z M59.5,276h1.2l-0.6-3.9L59.5,276z"/>
		<path class="st1" d="M68.9,279.3v-8.9h2.3c0.8,0,1.5,0.1,1.9,0.2c0.4,0.1,0.7,0.4,1,0.7c0.2,0.3,0.3,0.6,0.4,1.1
			c0.1,0.4,0.1,1.2,0.1,2.4c0,1.2,0,2-0.1,2.4c-0.1,0.4-0.2,0.8-0.4,1.1c-0.2,0.4-0.6,0.6-1,0.7c-0.4,0.1-1,0.2-1.9,0.2H68.9z
			 M71,272.1v5.6c0,0,0.1,0,0.1,0c0,0,0.1,0,0.2,0c0.2,0,0.4,0,0.6-0.1c0.1-0.1,0.3-0.2,0.4-0.3c0.1-0.1,0.1-0.3,0.2-0.6
			c0-0.3,0-0.9,0-1.8v-0.4c0-0.7,0-1.2,0-1.5c0-0.3-0.1-0.4-0.2-0.5c-0.1-0.1-0.2-0.2-0.4-0.3c-0.2-0.1-0.4-0.1-0.6-0.1
			c-0.1,0-0.1,0-0.2,0C71,272.1,71,272.1,71,272.1z"/>
		<path class="st1" d="M80.4,274.9c0-1.1,0-1.9,0.1-2.3c0.1-0.5,0.2-0.9,0.4-1.2c0.3-0.4,0.6-0.7,1-0.9c0.4-0.2,0.9-0.3,1.5-0.3
			c0.6,0,1.1,0.1,1.5,0.3c0.4,0.2,0.7,0.5,1,0.9c0.2,0.3,0.3,0.7,0.4,1.2c0.1,0.5,0.1,1.3,0.1,2.3c0,1.1,0,1.8-0.1,2.3
			c-0.1,0.5-0.2,0.9-0.4,1.2c-0.3,0.4-0.6,0.7-1,0.9c-0.4,0.2-0.9,0.3-1.5,0.3s-1.1-0.1-1.5-0.3c-0.4-0.2-0.7-0.5-1-0.9
			c-0.2-0.3-0.3-0.7-0.4-1.2C80.5,276.7,80.4,275.9,80.4,274.9z M84.3,275.7v-1.6c0-1-0.1-1.6-0.2-1.8c-0.1-0.2-0.4-0.4-0.7-0.4
			c-0.3,0-0.5,0.1-0.7,0.4c-0.1,0.2-0.2,0.8-0.2,1.8v1.6c0,1,0.1,1.6,0.2,1.8s0.3,0.4,0.7,0.4c0.3,0,0.5-0.1,0.7-0.4
			C84.2,277.2,84.3,276.6,84.3,275.7z"/>
		<path class="st1" d="M92.5,279.3v-8.9h2.3c0.8,0,1.3,0,1.7,0.1s0.6,0.2,0.8,0.4c0.3,0.2,0.4,0.5,0.6,0.8c0.1,0.3,0.2,0.7,0.2,1.1
			c0,0.5-0.1,0.9-0.3,1.3c-0.2,0.3-0.5,0.6-0.8,0.9c0.6,0.3,1,1,1,2c0,0,0,0,0,0c0,0.1,0,0.3,0,0.5c0,1,0.2,1.6,0.5,1.9h-2.4
			c-0.1-0.2-0.1-0.4-0.1-0.6c0-0.2,0-0.4,0-0.6c0-0.1,0-0.3,0-0.5s0-0.3,0-0.4c0-0.5-0.1-0.9-0.2-1.1c-0.1-0.2-0.4-0.3-0.8-0.3h-0.4
			v3.6H92.5z M94.6,274.1c0,0,0.1,0,0.1,0c0.1,0,0.1,0,0.1,0c0.4,0,0.7-0.1,0.9-0.3c0.2-0.2,0.3-0.5,0.3-0.9c0-0.4-0.1-0.7-0.3-0.8
			c-0.2-0.2-0.5-0.2-0.9-0.2c0,0-0.1,0-0.1,0c-0.1,0-0.1,0-0.1,0V274.1z"/>
		<path class="st1" d="M104.3,279.3v-8.9h4.8v1.7h-2.8v1.6h2.6v1.8h-2.6v1.9h2.8v1.8H104.3z"/>
		<path class="st1" d="M115,276.3h1.9v0.3c0,0.5,0.1,0.8,0.2,1c0.1,0.2,0.3,0.3,0.6,0.3c0.2,0,0.4-0.1,0.5-0.2
			c0.1-0.2,0.2-0.4,0.2-0.6c0-0.4-0.3-0.8-0.9-1.2c-0.1-0.1-0.2-0.1-0.2-0.2c0,0-0.1,0-0.1-0.1c-0.8-0.6-1.4-1-1.6-1.3
			c-0.1-0.2-0.3-0.5-0.3-0.7c-0.1-0.3-0.1-0.6-0.1-0.9c0-0.8,0.2-1.4,0.7-1.8c0.5-0.4,1.1-0.7,1.9-0.7c0.9,0,1.5,0.2,2,0.7
			c0.5,0.4,0.7,1.1,0.7,1.9c0,0,0,0.1,0,0.1c0,0.1,0,0.1,0,0.1h-1.9v-0.1c0-0.4-0.1-0.7-0.2-0.9c-0.1-0.2-0.3-0.3-0.5-0.3
			c-0.2,0-0.4,0.1-0.5,0.2c-0.1,0.1-0.2,0.3-0.2,0.6c0,0.4,0.3,0.8,1,1.2c0.1,0.1,0.2,0.1,0.3,0.2c0.1,0,0.1,0.1,0.2,0.1
			c0.7,0.5,1.2,0.9,1.4,1.2c0.1,0.2,0.2,0.4,0.3,0.7c0.1,0.3,0.1,0.5,0.1,0.8c0,0.9-0.2,1.6-0.7,2.1c-0.5,0.5-1.1,0.7-2,0.7
			c-0.9,0-1.6-0.2-2-0.7c-0.5-0.5-0.7-1.1-0.7-2.1c0-0.1,0-0.1,0-0.2C114.9,276.5,114.9,276.4,115,276.3z"/>
		<path class="st1" d="M140.2,279.3v-3.8l-2-5.1h2.2l0.9,2.8l0.9-2.8h2.3l-2,5.1v3.8H140.2z"/>
		<path class="st1" d="M159.1,276.3h1.9v0.3c0,0.5,0.1,0.8,0.2,1c0.1,0.2,0.3,0.3,0.6,0.3c0.2,0,0.4-0.1,0.5-0.2
			c0.1-0.2,0.2-0.4,0.2-0.6c0-0.4-0.3-0.8-0.9-1.2c-0.1-0.1-0.2-0.1-0.2-0.2c0,0-0.1,0-0.1-0.1c-0.8-0.6-1.4-1-1.6-1.3
			c-0.1-0.2-0.3-0.5-0.3-0.7c-0.1-0.3-0.1-0.6-0.1-0.9c0-0.8,0.2-1.4,0.7-1.8c0.5-0.4,1.1-0.7,1.9-0.7c0.9,0,1.5,0.2,2,0.7
			c0.5,0.4,0.7,1.1,0.7,1.9c0,0,0,0.1,0,0.1s0,0.1,0,0.1h-1.9v-0.1c0-0.4-0.1-0.7-0.2-0.9c-0.1-0.2-0.3-0.3-0.5-0.3
			c-0.2,0-0.4,0.1-0.5,0.2c-0.1,0.1-0.2,0.3-0.2,0.6c0,0.4,0.3,0.8,1,1.2c0.1,0.1,0.2,0.1,0.3,0.2c0.1,0,0.1,0.1,0.2,0.1
			c0.7,0.5,1.2,0.9,1.4,1.2c0.1,0.2,0.2,0.4,0.3,0.7c0.1,0.3,0.1,0.5,0.1,0.8c0,0.9-0.2,1.6-0.7,2.1c-0.5,0.5-1.1,0.7-2,0.7
			c-0.9,0-1.6-0.2-2-0.7c-0.5-0.5-0.7-1.1-0.7-2.1c0-0.1,0-0.1,0-0.2C159.1,276.5,159.1,276.4,159.1,276.3z"/>
		<path class="st1" d="M170.4,279.3v-8.9h2.1v8.9H170.4z"/>
		<path class="st1" d="M178.5,276.3h1.9v0.3c0,0.5,0.1,0.8,0.2,1c0.1,0.2,0.3,0.3,0.6,0.3c0.2,0,0.4-0.1,0.5-0.2
			c0.1-0.2,0.2-0.4,0.2-0.6c0-0.4-0.3-0.8-0.9-1.2c-0.1-0.1-0.2-0.1-0.2-0.2c0,0-0.1,0-0.1-0.1c-0.8-0.6-1.4-1-1.6-1.3
			c-0.1-0.2-0.3-0.5-0.3-0.7c-0.1-0.3-0.1-0.6-0.1-0.9c0-0.8,0.2-1.4,0.7-1.8c0.5-0.4,1.1-0.7,1.9-0.7c0.9,0,1.5,0.2,2,0.7
			c0.5,0.4,0.7,1.1,0.7,1.9c0,0,0,0.1,0,0.1s0,0.1,0,0.1h-1.9v-0.1c0-0.4-0.1-0.7-0.2-0.9c-0.1-0.2-0.3-0.3-0.5-0.3
			c-0.2,0-0.4,0.1-0.5,0.2c-0.1,0.1-0.2,0.3-0.2,0.6c0,0.4,0.3,0.8,1,1.2c0.1,0.1,0.2,0.1,0.3,0.2c0.1,0,0.1,0.1,0.2,0.1
			c0.7,0.5,1.2,0.9,1.4,1.2c0.1,0.2,0.2,0.4,0.3,0.7c0.1,0.3,0.1,0.5,0.1,0.8c0,0.9-0.2,1.6-0.7,2.1c-0.5,0.5-1.1,0.7-2,0.7
			c-0.9,0-1.6-0.2-2-0.7c-0.5-0.5-0.7-1.1-0.7-2.1c0-0.1,0-0.1,0-0.2S178.5,276.4,178.5,276.3z"/>
		<path class="st1" d="M190.9,279.3v-7.2h-1.7v-1.7h5.5v1.7H193v7.2H190.9z"/>
		<path class="st1" d="M200.4,279.3v-8.9h4.8v1.7h-2.8v1.6h2.6v1.8h-2.6v1.9h2.8v1.8H200.4z"/>
		<path class="st1" d="M211.4,279.3v-8.9h2.9l0.8,3.8c0,0,0,0.3,0.1,0.7c0.1,0.5,0.1,0.9,0.2,1.4c0.1-0.3,0.1-0.8,0.2-1.3
			c0.1-0.5,0.1-0.8,0.1-0.8l0.8-3.8h2.9v8.9h-2l0.2-6.9l-1.4,6.9h-1.6l-1.4-6.9l0.2,6.9H211.4z"/>
		<path class="st1" d="M225,279.3l1.9-8.9h2.5l1.9,8.9h-2.1l-0.3-1.7h-1.6l-0.3,1.7H225z M227.6,276h1.2l-0.6-3.9L227.6,276z"/>
		<path class="st1" d="M236.7,276.3h1.9v0.3c0,0.5,0.1,0.8,0.2,1c0.1,0.2,0.3,0.3,0.6,0.3c0.2,0,0.4-0.1,0.5-0.2
			c0.1-0.2,0.2-0.4,0.2-0.6c0-0.4-0.3-0.8-0.9-1.2c-0.1-0.1-0.2-0.1-0.2-0.2c0,0-0.1,0-0.1-0.1c-0.8-0.6-1.4-1-1.6-1.3
			c-0.1-0.2-0.3-0.5-0.3-0.7c-0.1-0.3-0.1-0.6-0.1-0.9c0-0.8,0.2-1.4,0.7-1.8c0.5-0.4,1.1-0.7,1.9-0.7c0.9,0,1.5,0.2,2,0.7
			c0.5,0.4,0.7,1.1,0.7,1.9c0,0,0,0.1,0,0.1s0,0.1,0,0.1h-1.9v-0.1c0-0.4-0.1-0.7-0.2-0.9c-0.1-0.2-0.3-0.3-0.5-0.3
			c-0.2,0-0.4,0.1-0.5,0.2c-0.1,0.1-0.2,0.3-0.2,0.6c0,0.4,0.3,0.8,1,1.2c0.1,0.1,0.2,0.1,0.3,0.2c0.1,0,0.1,0.1,0.2,0.1
			c0.7,0.5,1.2,0.9,1.4,1.2c0.1,0.2,0.2,0.4,0.3,0.7c0.1,0.3,0.1,0.5,0.1,0.8c0,0.9-0.2,1.6-0.7,2.1c-0.5,0.5-1.1,0.7-2,0.7
			c-0.9,0-1.6-0.2-2-0.7c-0.5-0.5-0.7-1.1-0.7-2.1c0-0.1,0-0.1,0-0.2S236.7,276.4,236.7,276.3z"/>
	</g>
	<path class="st0" d="M201,295.1v-5.2h-1.5v-1.2h0.1c0.5,0,1-0.1,1.3-0.3c0.3-0.2,0.5-0.5,0.7-0.9h1.2v7.7H201 M189.2,295.1V295
		c0-0.3,0-0.6,0.1-0.9c0.1-0.3,0.2-0.6,0.3-0.9c0.3-0.6,0.7-1.2,1.3-1.8c0.1-0.1,0.1-0.1,0.2-0.2l0-0.1c0.6-0.7,1-1.3,1-1.8
		c0-0.2,0-0.4-0.1-0.5c-0.1-0.1-0.2-0.2-0.4-0.2c-0.2,0-0.4,0.1-0.5,0.3c-0.1,0.2-0.2,0.5-0.2,1v0.1h-1.6V290c0-0.8,0.2-1.4,0.6-1.9
		c0.4-0.4,1-0.7,1.7-0.7c0.7,0,1.2,0.2,1.6,0.6c0.4,0.4,0.6,0.9,0.6,1.6c0,0.4-0.1,0.8-0.2,1.1c-0.2,0.4-0.4,0.7-0.8,1.1
		c-0.1,0.1-0.2,0.2-0.3,0.3c-0.6,0.6-1,1.1-1.2,1.5h2.5v1.5H189.2z M182.2,290c0-0.5,0-0.8-0.1-1c-0.1-0.2-0.2-0.3-0.5-0.3
		c-0.2,0-0.3,0.1-0.4,0.3c-0.1,0.2-0.1,0.5-0.1,1c0,0.5,0,0.8,0.1,1c0.1,0.2,0.2,0.3,0.4,0.3c0.2,0,0.4-0.1,0.4-0.3
		C182.1,290.8,182.2,290.5,182.2,290z M182.1,292.2c-0.2,0.1-0.4,0.2-0.6,0.3c-0.2,0.1-0.4,0.1-0.6,0.1c-0.6,0-1-0.2-1.2-0.6
		c-0.3-0.4-0.4-1-0.4-1.8c0-0.9,0.2-1.6,0.6-2.1c0.4-0.5,0.9-0.7,1.7-0.7c0.4,0,0.7,0.1,1,0.2c0.3,0.1,0.5,0.3,0.7,0.5
		c0.2,0.2,0.4,0.6,0.5,1c0.1,0.4,0.1,1.2,0.1,2.2c0,0.9,0,1.6-0.1,2c0,0.4-0.1,0.7-0.2,1c-0.2,0.3-0.4,0.6-0.8,0.8
		c-0.3,0.2-0.8,0.3-1.3,0.3c-0.7,0-1.2-0.2-1.6-0.5c-0.4-0.3-0.6-0.8-0.6-1.5l1.6,0c0,0.2,0.1,0.4,0.1,0.5c0.1,0.1,0.2,0.2,0.4,0.2
		c0.2,0,0.4-0.1,0.4-0.3c0.1-0.2,0.1-0.5,0.1-1c0-0.1,0-0.2,0-0.3C182.1,292.4,182.1,292.3,182.1,292.2z M171.2,295.1v-5.2h-1.5
		v-1.2h0.1c0.5,0,1-0.1,1.3-0.3c0.3-0.2,0.5-0.5,0.7-0.9h1.2v7.7H171.2z M145.6,295.1v-7.6h1.9l1.5,4.7c-0.1-0.8-0.1-1.5-0.1-2
		c0-0.6,0-1.1,0-1.5v-1.2h1.6v7.6h-1.9l-1.5-4.8c0.1,0.6,0.1,1.2,0.2,1.8c0,0.6,0.1,1.2,0.1,1.7v1.3H145.6z M135.9,295.1v-7.6h4.1
		v1.5h-2.4v1.4h2.2v1.5h-2.2v1.7h2.4v1.5H135.9z M109,295.1l1.7-7.6h2.1l1.6,7.6h-1.8l-0.2-1.5H111l-0.2,1.5H109z M111.2,292.3h1
		l-0.5-3.3L111.2,292.3z M99.1,295.1v-7.6h2c0.7,0,1.2,0.1,1.6,0.2c0.3,0.1,0.6,0.3,0.8,0.6c0.2,0.2,0.3,0.5,0.3,0.9
		c0.1,0.4,0.1,1.1,0.1,2.1c0,1,0,1.7-0.1,2.1c-0.1,0.4-0.2,0.7-0.3,0.9c-0.2,0.3-0.5,0.5-0.8,0.6c-0.3,0.1-0.9,0.2-1.6,0.2H99.1z
		 M100.9,288.9v4.8c0,0,0.1,0,0.1,0c0,0,0.1,0,0.2,0c0.2,0,0.4,0,0.5-0.1c0.1-0.1,0.2-0.1,0.3-0.3c0.1-0.1,0.1-0.3,0.1-0.5
		c0-0.3,0-0.8,0-1.6V291c0-0.6,0-1.1,0-1.3c0-0.2-0.1-0.4-0.1-0.5c-0.1-0.1-0.2-0.2-0.3-0.2c-0.1-0.1-0.3-0.1-0.5-0.1
		C101.1,288.9,101,288.9,100.9,288.9C101,288.9,100.9,288.9,100.9,288.9z M88.5,295.1l1.7-7.6h2.1l1.6,7.6h-1.8l-0.2-1.5h-1.4
		l-0.2,1.5H88.5z M90.7,292.3h1l-0.5-3.3L90.7,292.3z M78.7,295.1v-7.6h2c0.7,0,1.2,0.1,1.6,0.2c0.3,0.1,0.6,0.3,0.8,0.6
		c0.2,0.2,0.3,0.5,0.3,0.9c0.1,0.4,0.1,1.1,0.1,2.1c0,1,0,1.7-0.1,2.1c-0.1,0.4-0.2,0.7-0.3,0.9c-0.2,0.3-0.5,0.5-0.8,0.6
		c-0.3,0.1-0.9,0.2-1.6,0.2H78.7z M80.5,288.9v4.8c0,0,0.1,0,0.1,0c0,0,0.1,0,0.2,0c0.2,0,0.4,0,0.5-0.1c0.1-0.1,0.2-0.1,0.3-0.3
		c0.1-0.1,0.1-0.3,0.1-0.5c0-0.3,0-0.8,0-1.6V291c0-0.6,0-1.1,0-1.3c0-0.2-0.1-0.4-0.1-0.5c-0.1-0.1-0.2-0.2-0.3-0.2
		c-0.1-0.1-0.3-0.1-0.5-0.1C80.6,288.9,80.6,288.9,80.5,288.9C80.5,288.9,80.5,288.9,80.5,288.9z M68.2,295.1v-7.6H70l1.5,4.7
		c-0.1-0.8-0.1-1.5-0.1-2c0-0.6,0-1.1,0-1.5v-1.2h1.6v7.6h-1.9l-1.5-4.8c0.1,0.6,0.1,1.2,0.2,1.8c0,0.6,0.1,1.2,0.1,1.7v1.3H68.2z
		 M57.6,287.5h1.8v4.8c0,0.7,0,1.2,0.1,1.3c0.1,0.2,0.3,0.3,0.5,0.3c0.2,0,0.4-0.1,0.5-0.3c0.1-0.2,0.1-0.6,0.1-1.3v-4.8h1.8v4.9
		c0,0.5,0,1-0.1,1.2c0,0.3-0.1,0.5-0.2,0.7c-0.2,0.3-0.4,0.6-0.8,0.8c-0.3,0.2-0.8,0.2-1.3,0.2c-0.5,0-0.9-0.1-1.2-0.2
		c-0.3-0.2-0.6-0.4-0.8-0.7c-0.1-0.2-0.2-0.5-0.3-0.9c-0.1-0.4-0.1-1-0.1-1.9V287.5z M48,295.1v-7.6h4.1v1.5h-2.4v1.4h2.2v1.5h-2.2
		v3.2H48z M7.7,285.2h234.6v12.3H7.7V285.2z"/>
</g>
</svg>
