<?xml version="1.0" encoding="utf-8"?>
<!-- Generator: Adobe Illustrator 23.0.0, SVG Export Plug-In . SVG Version: 6.00 Build 0)  -->
<svg version="1.1" id="Capa_1" xmlns="http://www.w3.org/2000/svg" xmlns:xlink="http://www.w3.org/1999/xlink" x="0px" y="0px"
	 viewBox="0 0 100 100" style="enable-background:new 0 0 100 100;" xml:space="preserve">
<style type="text/css">
	.st0{fill:#FFFFFF;}
</style>
<g>
	<path class="st0" d="M50,0C22.4,0,0,22.4,0,50s22.4,50,50,50s50-22.4,50-50S77.6,0,50,0z M6.1,50C6.1,25.8,25.8,6.1,50,6.1
		c21.2,0,39,15.2,43,35.2H81.2H59.1v-6.7h-3v6.7h-2h-6.9V39h-5.5v22h5.5v-2.4H54h2v6.7h3v-6.7h8.2c-2.5,4.6-3.9,10-3.9,15.6
		c0,5.8,1.5,11.3,4.2,16c-5.3,2.3-11.2,3.6-17.4,3.6C25.8,93.9,6.1,74.2,6.1,50z"/>
	<path class="st0" d="M34.5,48.6H12.8c-0.8,0-1.4,0.6-1.4,1.4s0.6,1.4,1.4,1.4h21.7c0.8,0,1.4-0.6,1.4-1.4S35.2,48.6,34.5,48.6z"/>
	<path class="st0" d="M34.5,55.2c-0.4,0-0.9,0.2-1.1,0.6l-7.2,10.7c-0.4,0.6-0.3,1.5,0.4,1.9c0.6,0.4,1.5,0.3,1.9-0.4l7.2-10.7
		c0.4-0.6,0.3-1.5-0.4-1.9C35,55.2,34.7,55.2,34.5,55.2z"/>
	<path class="st0" d="M33.3,44.2c0.4,0.6,1.3,0.8,1.9,0.4c0.6-0.4,0.8-1.3,0.4-1.9L28.4,32c-0.3-0.4-0.7-0.6-1.1-0.6
		c-0.3,0-0.5,0.1-0.8,0.2c-0.6,0.4-0.8,1.3-0.4,1.9L33.3,44.2z"/>
</g>
</svg>
