<?xml version="1.0" encoding="utf-8"?>
<!-- Generator: Adobe Illustrator 23.0.0, SVG Export Plug-In . SVG Version: 6.00 Build 0)  -->
<svg version="1.1" id="Capa_1" xmlns="http://www.w3.org/2000/svg" xmlns:xlink="http://www.w3.org/1999/xlink" x="0px" y="0px"
	 viewBox="0 0 115 40" style="enable-background:new 0 0 115 40;" xml:space="preserve">
<style type="text/css">
	.st0{fill-rule:evenodd;clip-rule:evenodd;fill:#FFFFFF;}
</style>
<g>
	<g>
		<path class="st0" d="M13.8,40c0-2.7-2.9-4.7-5.6-4.7L7,37.3l-1.2-1.9c-2.7,0-5.5,1.9-5.5,4.7H13.8z"/>
		<path class="st0" d="M7.4,34.1l0.8-2.6c4.3-5.1,0.1-10-0.8-15.9c0-0.3-0.7-0.4-0.7,0c-0.8,5.9-5.4,10.7-0.8,15.9l0.8,2.6H5.8
			c-3.4-5.3-6.6-7.2-5.7-13.8C1.2,12.9,5.8,8,6.7,0.3c0-0.4,0.7-0.4,0.7,0c0.8,7.7,5.5,12.6,6.5,20.1c0.9,6.6-2.4,8.7-5.7,13.8H7.4z
			"/>
	</g>
	<path class="st0" d="M21.2,25.5v2.2h4.4v1.6h-4.4v2.4h4.7v1.8H19v-9.8h6.9v1.9H21.2L21.2,25.5z M31.7,25.6v7.8h-2.3v-7.8h-2.7v-2
		h7.7v2H31.7L31.7,25.6z M41.2,29.8h2.2c0,0.1,0,0.2,0,0.3c0,0.5,0,0.9-0.1,1.2c0,0.3-0.1,0.6-0.3,0.9c-0.2,0.3-0.4,0.5-0.7,0.7
		c-0.3,0.2-0.7,0.3-1.1,0.4c-0.4,0.1-0.8,0.1-1.3,0.1c-0.5,0-1.2,0-2.1,0c-0.6-0.1-1.1-0.2-1.5-0.4c-0.4-0.2-0.7-0.5-0.8-0.9
		c-0.2-0.4-0.3-0.8-0.4-1.2C35,30.5,35,30,35,29.4l0-1.3c0-0.9,0.1-1.7,0.2-2.2c0.1-0.6,0.4-1,0.7-1.3c0.3-0.3,0.8-0.6,1.3-0.7
		c0.6-0.1,1.3-0.2,2.2-0.2h0.7c0.7,0,1.3,0.1,1.7,0.2c0.5,0.1,0.9,0.4,1.1,0.9c0.1,0.2,0.2,0.4,0.3,0.7c0.1,0.3,0.1,0.5,0.1,0.8
		c0,0.3,0,0.6,0,0.9h-2.3c0-0.4,0-0.7-0.1-0.9c-0.1-0.2-0.2-0.4-0.4-0.5c-0.2-0.1-0.5-0.1-0.9-0.1h-0.4c-0.8,0-1.4,0.1-1.6,0.4
		c-0.2,0.2-0.3,0.6-0.4,1.2c0,0.3,0,0.7,0,1.4l0,1.2c0,0.6,0,1,0.1,1.3c0.1,0.3,0.3,0.5,0.5,0.6c0.3,0.1,0.7,0.2,1.2,0.2
		c0.7,0,1.1-0.1,1.5-0.2c0.3-0.1,0.5-0.5,0.5-1.1c0-0.1,0-0.1,0-0.2C41.2,30,41.2,29.9,41.2,29.8L41.2,29.8z M53.1,23.6v9.8h-2.3v-4
		h-4v4h-2.2v-9.8h2.2v3.9h4v-3.9H53.1L53.1,23.6z M56.9,25.5v2.2h4.4v1.6h-4.4v2.4h4.7v1.8h-6.9v-9.8h6.9v1.9H56.9L56.9,25.5z
		 M67.3,28.1h4.4c0,0.1,0,0.2,0,0.3l0,1.6c0,0.7-0.1,1.3-0.2,1.8c-0.1,0.5-0.3,0.9-0.7,1.2c-0.4,0.3-0.9,0.5-1.5,0.6
		c-0.5,0-1.2,0.1-1.9,0.1c-0.8,0-1.5,0-2-0.1c-0.5-0.1-1-0.3-1.4-0.5c-0.4-0.3-0.7-0.7-0.8-1.2c-0.2-0.5-0.3-1.2-0.3-2
		c0-0.2,0-0.4,0-0.7c0-0.3,0-0.6,0-0.7c0-0.7,0-1.2,0-1.5c0-0.3,0.1-0.7,0.2-1c0.1-0.4,0.3-0.7,0.5-1c0.4-0.5,0.9-0.8,1.4-0.9
		c0.6-0.1,1.3-0.2,2.2-0.2h0.2c0.8,0,1.4,0,1.9,0.1c0.5,0,0.9,0.2,1.2,0.3c0.3,0.2,0.6,0.5,0.8,0.9c0.2,0.4,0.3,1,0.3,1.8h-2.3
		c0-0.4-0.1-0.6-0.2-0.8c-0.1-0.2-0.3-0.3-0.5-0.3c-0.2-0.1-0.5-0.1-0.9-0.1h-0.5c-0.8,0-1.3,0.1-1.6,0.3c-0.2,0.2-0.3,0.4-0.4,0.7
		c0,0.3-0.1,0.6-0.1,1.1c0,0.9,0,1.6,0,2c0,0.6,0.1,1.1,0.2,1.3c0.1,0.3,0.3,0.5,0.6,0.6c0.3,0.1,0.7,0.1,1.3,0.1c0.6,0,1,0,1.3-0.1
		c0.3-0.1,0.5-0.2,0.6-0.5c0.1-0.2,0.2-0.6,0.2-1.2c0,0,0-0.1,0-0.1c0-0.1,0-0.1,0-0.1h-2.1V28.1L67.3,28.1z M72.6,28.6
		c0-1,0-1.8,0.1-2.4c0.1-0.6,0.3-1.1,0.6-1.5c0.3-0.4,0.7-0.7,1.3-0.9c0.6-0.2,1.4-0.3,2.4-0.3c0.6,0,1.2,0,1.7,0.1
		c0.5,0.1,0.9,0.2,1.3,0.4c0.4,0.2,0.7,0.5,1,0.9c0.2,0.4,0.4,0.9,0.4,1.6c0,0.3,0,0.7,0,1.3v0.6c0,1,0,1.8-0.1,2.4
		c-0.1,0.6-0.3,1.1-0.6,1.5c-0.3,0.4-0.7,0.7-1.3,0.9c-0.6,0.2-1.4,0.3-2.4,0.3c-0.8,0-1.5-0.1-2-0.2c-0.5-0.1-1-0.3-1.3-0.6
		c-0.3-0.3-0.6-0.7-0.8-1.2c-0.2-0.5-0.2-1.2-0.2-2V28.6L72.6,28.6z M74.9,28.6v0.7c0,0.6,0,1,0.1,1.3c0.1,0.3,0.2,0.5,0.5,0.7
		c0.3,0.2,0.7,0.2,1.2,0.2c0.5,0,1,0,1.3-0.1c0.3-0.1,0.5-0.2,0.7-0.4c0.2-0.2,0.3-0.4,0.3-0.7c0-0.3,0.1-0.7,0.1-1.2
		c0-0.2,0-0.4,0-0.7c0-0.3,0-0.5,0-0.8c0-0.5,0-1-0.1-1.3c-0.1-0.3-0.2-0.5-0.5-0.7c-0.2-0.2-0.6-0.2-1.1-0.2H77
		c-0.6,0-1,0.1-1.3,0.2c-0.3,0.1-0.5,0.3-0.6,0.5c-0.1,0.2-0.2,0.6-0.2,0.9C74.9,27.5,74.9,28,74.9,28.6L74.9,28.6z M90.9,23.6
		l-3.6,6.2v3.6h-2.3v-3.6l-3.5-6.2h2.6l2,4h0.1l2.1-4H90.9L90.9,23.6z M93.7,25.5v2.2h4.4v1.6h-4.4v2.4h4.7v1.8h-6.9v-9.8h6.9v1.9
		H93.7L93.7,25.5z M109.5,23.6v9.8h-3.8l-3.5-7.9h-0.1l0.1,7.9h-2.2v-9.8h3.8l3.5,7.8h0.1l-0.1-7.8H109.5z"/>
</g>
</svg>
