<?xml version="1.0" encoding="utf-8"?>
<!-- Generator: Adobe Illustrator 23.0.0, SVG Export Plug-In . SVG Version: 6.00 Build 0)  -->
<svg version="1.1" id="Capa_1" xmlns="http://www.w3.org/2000/svg" xmlns:xlink="http://www.w3.org/1999/xlink" x="0px" y="0px"
	 viewBox="0 0 50 50" style="enable-background:new 0 0 50 50;" xml:space="preserve">
<style type="text/css">
	.st0{fill:#FFFFFF;}
</style>
<g>
	<path class="st0" d="M25,3.4c11.9,0,21.6,9.7,21.6,21.6c0,11.9-9.7,21.6-21.6,21.6S3.4,36.9,3.4,25C3.4,13.1,13.1,3.4,25,3.4 M25,0
		C11.2,0,0,11.2,0,25s11.2,25,25,25c13.8,0,25-11.2,25-25S38.8,0,25,0L25,0z"/>
	<path class="st0" d="M14.3,19.8h5.1v16.3h-5.1V19.8z M16.8,11.7c1.6,0,2.9,1.3,2.9,2.9c0,1.6-1.3,2.9-2.9,2.9
		c-1.6,0-2.9-1.3-2.9-2.9C13.9,13,15.2,11.7,16.8,11.7"/>
	<path class="st0" d="M22.6,19.8h4.9V22h0.1c0.7-1.3,2.3-2.6,4.8-2.6c5.1,0,6.1,3.4,6.1,7.8v8.9h-5.1v-7.9c0-1.9,0-4.3-2.6-4.3
		c-2.6,0-3,2.1-3,4.2v8.1h-5.1V19.8z"/>
</g>
</svg>
