<?xml version="1.0" encoding="utf-8"?>
<!-- Generator: Adobe Illustrator 23.0.0, SVG Export Plug-In . SVG Version: 6.00 Build 0)  -->
<svg version="1.1" id="Capa_1" xmlns="http://www.w3.org/2000/svg" xmlns:xlink="http://www.w3.org/1999/xlink" x="0px" y="0px"
	 viewBox="0 0 100 100" style="enable-background:new 0 0 100 100;" xml:space="preserve">
<style type="text/css">
	.st0{fill:#2E4B93;}
</style>
<g>
	<path class="st0" d="M50,0C22.4,0,0,22.4,0,50s22.4,50,50,50s50-22.4,50-50S77.6,0,50,0z M41.3,91.9l0.8-6.1l3.6,2.8L41.3,91.9z
		 M48.1,83.9l-5.3-4l0.4-3h4.9V83.9z M48.1,72.6h-4.3L45.7,59h2.5V72.6z M56.6,76.9l0.4,3l-5.3,4v-7H56.6z M51.8,72.6V59h2.5
		l1.8,13.6H51.8z M54.2,88.5l3.6-2.8l0.8,6.1L54.2,88.5z M64,91.6L59.6,59h4.5v-8H35.8v8h4.5l-4.4,32.6C18.6,85.6,6.1,69.3,6.1,50
		C6.1,25.8,25.8,6.1,50,6.1S93.9,25.8,93.9,50C93.9,69.3,81.3,85.7,64,91.6z"/>
	<path class="st0" d="M50,9.9c-1,0-1.8,0.8-1.8,1.8v28.8c0,1,0.8,1.8,1.8,1.8s1.8-0.8,1.8-1.8V11.7C51.8,10.7,51,9.9,50,9.9z"/>
	<path class="st0" d="M42.3,43.2l-14.1-9.6c-0.8-0.6-2-0.4-2.6,0.5c-0.6,0.8-0.4,2,0.5,2.6l14.2,9.6c0.8,0.6,2,0.4,2.5-0.5
		c0.2-0.3,0.3-0.7,0.3-1C43.1,44.1,42.9,43.6,42.3,43.2z"/>
	<path class="st0" d="M71.8,33.6l-14.1,9.6c-0.8,0.6-1.1,1.7-0.5,2.6c0.6,0.8,1.7,1.1,2.6,0.5l14.1-9.6c0.5-0.4,0.8-0.9,0.8-1.5
		c0-0.4-0.1-0.7-0.3-1C73.8,33.3,72.6,33,71.8,33.6z"/>
</g>
</svg>
