<?xml version="1.0" encoding="utf-8"?>
<!-- Generator: Adobe Illustrator 23.0.0, SVG Export Plug-In . SVG Version: 6.00 Build 0)  -->
<svg version="1.1" id="Capa_1" xmlns="http://www.w3.org/2000/svg" xmlns:xlink="http://www.w3.org/1999/xlink" x="0px" y="0px"
	 viewBox="0 0 50 50" style="enable-background:new 0 0 50 50;" xml:space="preserve">
<style type="text/css">
	.st0{fill:#FFFFFF;}
</style>
<g>
	<path class="st0" d="M25,3.4c11.9,0,21.6,9.7,21.6,21.6c0,11.9-9.7,21.6-21.6,21.6C13.1,46.6,3.4,36.9,3.4,25
		C3.4,13.1,13.1,3.4,25,3.4 M25,0C11.2,0,0,11.2,0,25s11.2,25,25,25s25-11.2,25-25S38.8,0,25,0L25,0z"/>
	<path class="st0" d="M38.3,18.5c-0.2-1.7-0.8-3.3-2.1-4.5c-1.4-1.3-3-1.9-4.9-2c-3.1-0.2-10.5-0.3-13.1,0.1c-3,0.5-4.9,2.2-5.7,5.1
		c-0.6,2.3-0.5,12.6-0.1,14.9c0.5,3,2.3,5,5.3,5.8c2.1,0.5,12.4,0.5,14.7,0.1c3-0.5,5-2.3,5.8-5.3C38.7,30.4,38.5,20.5,38.3,18.5z
		 M35.9,31.7c-0.4,2.3-1.9,3.7-4.2,4C29.5,35.9,20,36.1,18,35.5c-1.9-0.5-3-1.8-3.3-3.7c-0.3-1.8-0.4-10.9,0-13.4
		c0.3-2.3,1.9-3.7,4.2-4c2.3-0.3,10.8-0.3,13,0.1c2.3,0.4,3.7,1.9,4,4.2C36.1,20.9,36.2,29.4,35.9,31.7z M25.3,18.3
		c-3.8,0-6.8,3-6.8,6.8c0,3.8,3,6.8,6.8,6.8c3.8,0,6.8-3,6.8-6.8C32.1,21.3,29,18.3,25.3,18.3z M25.2,29.4c-2.4,0-4.4-2-4.4-4.4
		c0-2.4,2-4.4,4.4-4.4c2.4,0,4.4,2,4.4,4.4C29.6,27.5,27.6,29.5,25.2,29.4z M33.9,18c0,0.9-0.7,1.6-1.6,1.6c-0.9,0-1.6-0.7-1.6-1.6
		c0-0.9,0.7-1.6,1.6-1.6C33.2,16.4,33.9,17.1,33.9,18z"/>
	<path class="st0" d="M38.3,18.5c-0.2-1.7-0.8-3.3-2.1-4.5c-1.4-1.3-3-1.9-4.9-2c-3.1-0.2-10.5-0.3-13.1,0.1c-3,0.5-4.9,2.2-5.7,5.1
		c-0.6,2.3-0.5,12.6-0.1,14.9c0.5,3,2.3,5,5.3,5.8c2.1,0.5,12.4,0.5,14.7,0.1c3-0.5,5-2.3,5.8-5.3C38.7,30.4,38.5,20.5,38.3,18.5z
		 M35.9,31.7c-0.4,2.3-1.9,3.7-4.2,4C29.5,35.9,20,36.1,18,35.5c-1.9-0.5-3-1.8-3.3-3.7c-0.3-1.8-0.4-10.9,0-13.4
		c0.3-2.3,1.9-3.7,4.2-4c2.3-0.3,10.8-0.3,13,0.1c2.3,0.4,3.7,1.9,4,4.2C36.1,20.9,36.2,29.4,35.9,31.7z M25.3,18.3
		c-3.8,0-6.8,3-6.8,6.8c0,3.8,3,6.8,6.8,6.8c3.8,0,6.8-3,6.8-6.8C32.1,21.3,29,18.3,25.3,18.3z M25.2,29.4c-2.4,0-4.4-2-4.4-4.4
		c0-2.4,2-4.4,4.4-4.4c2.4,0,4.4,2,4.4,4.4C29.6,27.5,27.6,29.5,25.2,29.4z M33.9,18c0,0.9-0.7,1.6-1.6,1.6c-0.9,0-1.6-0.7-1.6-1.6
		c0-0.9,0.7-1.6,1.6-1.6C33.2,16.4,33.9,17.1,33.9,18z"/>
</g>
</svg>
