<?xml version="1.0" encoding="utf-8"?>
<!-- Generator: Adobe Illustrator 23.0.0, SVG Export Plug-In . SVG Version: 6.00 Build 0)  -->
<svg version="1.1" id="Capa_1" xmlns="http://www.w3.org/2000/svg" xmlns:xlink="http://www.w3.org/1999/xlink" x="0px" y="0px"
	 viewBox="0 0 20 20" style="enable-background:new 0 0 20 20;" xml:space="preserve">
<style type="text/css">
	.st0{fill:#0950A1;}
</style>
<path class="st0" d="M10,0C4.5,0,0,4.5,0,10s4.5,10,10,10s10-4.5,10-10S15.5,0,10,0z M13.1,10.5l-4.4,4.4c-0.3,0.3-0.8,0.3-1.1,0
	l-0.8-0.8c-0.3-0.3-0.3-0.8,0-1.1l3.2-3L6.9,6.9c-0.3-0.3-0.3-0.8,0-1.1l0.7-0.7c0.3-0.3,0.8-0.3,1.1,0l4.4,4.4
	C13.4,9.8,13.4,10.2,13.1,10.5z"/>
</svg>
